<svg width="364" height="70" viewBox="0 0 364 70" fill="none" xmlns="http://www.w3.org/2000/svg">
<rect width="364" height="70" fill="black"/>
<path d="M16.2745 42V21H33.2845V42H32.2645V21.57L32.6245 21.93H16.9345L17.2945 21.57V42H16.2745ZM48.3461 42.09C46.9461 42.09 45.6861 41.77 44.5661 41.13C43.4461 40.47 42.5561 39.55 41.8961 38.37C41.2561 37.17 40.9361 35.79 40.9361 34.23C40.9361 32.65 41.2561 31.27 41.8961 30.09C42.5561 28.89 43.4461 27.96 44.5661 27.3C45.6861 26.64 46.9461 26.31 48.3461 26.31C49.7861 26.31 51.0761 26.65 52.2161 27.33C53.3761 28.01 54.2861 28.94 54.9461 30.12C55.6261 31.3 55.9661 32.67 55.9661 34.23C55.9661 35.77 55.6261 37.13 54.9461 38.31C54.2861 39.49 53.3761 40.42 52.2161 41.1C51.0761 41.76 49.7861 42.09 48.3461 42.09ZM40.6661 47.82V26.43H41.6261V31.89L41.3561 34.26L41.6561 36.63V47.82H40.6661ZM48.3161 41.19C49.5761 41.19 50.7061 40.9 51.7061 40.32C52.7261 39.74 53.5261 38.92 54.1061 37.86C54.6861 36.8 54.9761 35.59 54.9761 34.23C54.9761 32.83 54.6861 31.61 54.1061 30.57C53.5261 29.53 52.7261 28.72 51.7061 28.14C50.7061 27.54 49.5761 27.24 48.3161 27.24C47.0361 27.24 45.8961 27.54 44.8961 28.14C43.8961 28.72 43.1061 29.53 42.5261 30.57C41.9461 31.61 41.6561 32.83 41.6561 34.23C41.6561 35.59 41.9461 36.8 42.5261 37.86C43.1061 38.92 43.8961 39.74 44.8961 40.32C45.8961 40.9 47.0361 41.19 48.3161 41.19ZM67.1446 42.09C65.6846 42.09 64.3746 41.76 63.2146 41.1C62.0746 40.42 61.1646 39.48 60.4846 38.28C59.8246 37.08 59.4946 35.72 59.4946 34.2C59.4946 32.66 59.8246 31.3 60.4846 30.12C61.1646 28.94 62.0746 28.01 63.2146 27.33C64.3746 26.65 65.6846 26.31 67.1446 26.31C68.6046 26.31 69.9146 26.65 71.0746 27.33C72.2346 28.01 73.1446 28.94 73.8046 30.12C74.4646 31.3 74.7946 32.66 74.7946 34.2C74.7946 35.72 74.4646 37.08 73.8046 38.28C73.1446 39.48 72.2346 40.42 71.0746 41.1C69.9146 41.76 68.6046 42.09 67.1446 42.09ZM67.1446 41.19C68.4246 41.19 69.5646 40.9 70.5646 40.32C71.5846 39.72 72.3746 38.89 72.9346 37.83C73.5146 36.77 73.8046 35.56 73.8046 34.2C73.8046 32.82 73.5146 31.61 72.9346 30.57C72.3746 29.51 71.5846 28.69 70.5646 28.11C69.5646 27.53 68.4246 27.24 67.1446 27.24C65.8846 27.24 64.7546 27.53 63.7546 28.11C62.7546 28.69 61.9546 29.51 61.3546 30.57C60.7746 31.61 60.4846 32.82 60.4846 34.2C60.4846 35.56 60.7746 36.77 61.3546 37.83C61.9546 38.89 62.7546 39.72 63.7546 40.32C64.7546 40.9 65.8846 41.19 67.1446 41.19ZM79.9818 42V26.43H90.3318V27.33H80.6418L80.9718 27.03V42H79.9818ZM101.373 42.09C99.9734 42.09 98.7134 41.77 97.5934 41.13C96.4734 40.47 95.5834 39.55 94.9234 38.37C94.2834 37.17 93.9634 35.79 93.9634 34.23C93.9634 32.65 94.2834 31.27 94.9234 30.09C95.5834 28.89 96.4734 27.96 97.5934 27.3C98.7134 26.64 99.9734 26.31 101.373 26.31C102.813 26.31 104.103 26.65 105.243 27.33C106.403 28.01 107.313 28.94 107.973 30.12C108.653 31.3 108.993 32.67 108.993 34.23C108.993 35.77 108.653 37.13 107.973 38.31C107.313 39.49 106.403 40.42 105.243 41.1C104.103 41.76 102.813 42.09 101.373 42.09ZM93.6934 47.82V26.43H94.6534V31.89L94.3834 34.26L94.6834 36.63V47.82H93.6934ZM101.343 41.19C102.603 41.19 103.733 40.9 104.733 40.32C105.753 39.74 106.553 38.92 107.133 37.86C107.713 36.8 108.003 35.59 108.003 34.23C108.003 32.83 107.713 31.61 107.133 30.57C106.553 29.53 105.753 28.72 104.733 28.14C103.733 27.54 102.603 27.24 101.343 27.24C100.063 27.24 98.9234 27.54 97.9234 28.14C96.9234 28.72 96.1334 29.53 95.5534 30.57C94.9734 31.61 94.6834 32.83 94.6834 34.23C94.6834 35.59 94.9734 36.8 95.5534 37.86C96.1334 38.92 96.9234 39.74 97.9234 40.32C98.9234 40.9 100.063 41.19 101.343 41.19ZM123.953 42V38.37L123.923 37.83V31.92C123.923 30.38 123.513 29.21 122.693 28.41C121.873 27.61 120.683 27.21 119.123 27.21C117.983 27.21 116.943 27.41 116.003 27.81C115.063 28.19 114.253 28.69 113.573 29.31L113.033 28.59C113.773 27.89 114.683 27.34 115.763 26.94C116.843 26.52 117.973 26.31 119.153 26.31C121.013 26.31 122.433 26.79 123.413 27.75C124.413 28.69 124.913 30.08 124.913 31.92V42H123.953ZM118.163 42.09C116.983 42.09 115.973 41.91 115.133 41.55C114.313 41.19 113.683 40.68 113.243 40.02C112.803 39.34 112.583 38.57 112.583 37.71C112.583 36.95 112.763 36.25 113.123 35.61C113.483 34.95 114.073 34.43 114.893 34.05C115.733 33.65 116.853 33.45 118.253 33.45H124.283V34.26H118.253C116.553 34.26 115.343 34.58 114.623 35.22C113.923 35.86 113.573 36.67 113.573 37.65C113.573 38.75 113.983 39.63 114.803 40.29C115.623 40.93 116.763 41.25 118.223 41.25C119.663 41.25 120.853 40.93 121.793 40.29C122.733 39.63 123.443 38.7 123.923 37.5L124.253 38.16C123.853 39.34 123.133 40.29 122.093 41.01C121.053 41.73 119.743 42.09 118.163 42.09ZM131.281 42V26.43H132.211L139.831 39.06H139.381L146.971 26.43H147.871V42H146.941V27.69L147.181 27.75L139.801 39.9H139.321L131.941 27.72L132.241 27.69V42H131.281ZM154.66 42V26.43H155.59L163.21 39.06H162.76L170.35 26.43H171.25V42H170.32V27.69L170.56 27.75L163.18 39.9H162.7L155.32 27.72L155.62 27.69V42H154.66ZM192.798 42V26.43H193.788V42H192.798ZM183.888 32.22C185.808 32.24 187.268 32.66 188.268 33.48C189.268 34.3 189.768 35.49 189.768 37.05C189.768 38.69 189.238 39.94 188.178 40.8C187.138 41.66 185.608 42.08 183.588 42.06L178.038 42V26.43H179.028V32.16L183.888 32.22ZM183.588 41.22C185.308 41.24 186.598 40.9 187.458 40.2C188.338 39.5 188.778 38.46 188.778 37.08C188.778 35.72 188.348 34.71 187.488 34.05C186.628 33.39 185.328 33.05 183.588 33.03L179.028 32.97V41.19L183.588 41.22ZM214.186 42.09C212.726 42.09 211.416 41.76 210.256 41.1C209.116 40.42 208.206 39.48 207.526 38.28C206.866 37.08 206.536 35.72 206.536 34.2C206.536 32.66 206.866 31.3 207.526 30.12C208.206 28.94 209.116 28.01 210.256 27.33C211.416 26.65 212.726 26.31 214.186 26.31C215.646 26.31 216.956 26.65 218.116 27.33C219.276 28.01 220.186 28.94 220.846 30.12C221.506 31.3 221.836 32.66 221.836 34.2C221.836 35.72 221.506 37.08 220.846 38.28C220.186 39.48 219.276 40.42 218.116 41.1C216.956 41.76 215.646 42.09 214.186 42.09ZM214.186 41.19C215.466 41.19 216.606 40.9 217.606 40.32C218.626 39.72 219.416 38.89 219.976 37.83C220.556 36.77 220.846 35.56 220.846 34.2C220.846 32.82 220.556 31.61 219.976 30.57C219.416 29.51 218.626 28.69 217.606 28.11C216.606 27.53 215.466 27.24 214.186 27.24C212.926 27.24 211.796 27.53 210.796 28.11C209.796 28.69 208.996 29.51 208.396 30.57C207.816 31.61 207.526 32.82 207.526 34.2C207.526 35.56 207.816 36.77 208.396 37.83C208.996 38.89 209.796 39.72 210.796 40.32C211.796 40.9 212.926 41.19 214.186 41.19ZM233.683 42.12C232.463 42.12 231.373 41.9 230.413 41.46C229.453 41 228.643 40.34 227.983 39.48C227.323 38.6 226.823 37.53 226.483 36.27C226.143 34.99 225.973 33.53 225.973 31.89C225.973 30.17 226.143 28.71 226.483 27.51C226.823 26.31 227.263 25.31 227.803 24.51C228.363 23.71 228.983 23.07 229.663 22.59C230.363 22.11 231.053 21.74 231.733 21.48C232.433 21.2 233.083 20.99 233.683 20.85L240.493 19.17L240.673 20.1L234.133 21.69C233.633 21.81 233.063 21.98 232.423 22.2C231.803 22.4 231.163 22.71 230.503 23.13C229.863 23.53 229.273 24.09 228.733 24.81C228.193 25.53 227.753 26.47 227.413 27.63C227.093 28.77 226.933 30.18 226.933 31.86C226.933 32.12 226.933 32.34 226.933 32.52C226.953 32.7 226.973 32.9 226.993 33.12C227.033 33.32 227.083 33.62 227.143 34.02L226.633 33.96C226.693 32.58 227.043 31.36 227.683 30.3C228.323 29.22 229.183 28.38 230.263 27.78C231.363 27.16 232.613 26.85 234.013 26.85C235.453 26.85 236.733 27.17 237.853 27.81C238.973 28.45 239.843 29.34 240.463 30.48C241.103 31.6 241.423 32.91 241.423 34.41C241.423 35.89 241.103 37.21 240.463 38.37C239.823 39.53 238.923 40.45 237.763 41.13C236.603 41.79 235.243 42.12 233.683 42.12ZM233.923 41.22C235.183 41.22 236.303 40.93 237.283 40.35C238.263 39.75 239.033 38.94 239.593 37.92C240.153 36.9 240.433 35.73 240.433 34.41C240.433 33.11 240.153 31.96 239.593 30.96C239.033 29.96 238.263 29.18 237.283 28.62C236.303 28.06 235.183 27.78 233.923 27.78C232.643 27.78 231.513 28.06 230.533 28.62C229.553 29.18 228.783 29.96 228.223 30.96C227.663 31.94 227.383 33.09 227.383 34.41C227.383 35.71 227.663 36.88 228.223 37.92C228.783 38.94 229.553 39.75 230.533 40.35C231.513 40.93 232.643 41.22 233.923 41.22ZM245.702 47.91C245.002 47.91 244.352 47.79 243.752 47.55C243.152 47.33 242.642 46.99 242.222 46.53L242.792 45.75C243.212 46.19 243.652 46.51 244.112 46.71C244.572 46.93 245.102 47.04 245.702 47.04C246.462 47.04 247.132 46.83 247.712 46.41C248.292 45.99 248.832 45.22 249.332 44.1L250.472 41.64L250.622 41.4L257.402 26.43H258.452L250.292 44.34C249.892 45.22 249.452 45.92 248.972 46.44C248.512 46.98 248.012 47.36 247.472 47.58C246.932 47.8 246.342 47.91 245.702 47.91ZM250.502 42.36L243.242 26.43H244.322L251.072 41.34L250.502 42.36ZM272.196 35.1C271.176 35.54 270.156 35.88 269.136 36.12C268.136 36.34 267.196 36.45 266.316 36.45C264.596 36.45 263.196 36.05 262.116 35.25C261.056 34.45 260.526 33.25 260.526 31.65V26.43H261.516V31.62C261.516 32.92 261.956 33.91 262.836 34.59C263.736 35.27 264.926 35.61 266.406 35.61C267.266 35.61 268.186 35.49 269.166 35.25C270.146 35.01 271.166 34.66 272.226 34.2L272.196 35.1ZM272.076 42V26.43H273.066V42H272.076ZM286.145 42.09C284.605 42.09 283.245 41.76 282.065 41.1C280.885 40.42 279.955 39.48 279.275 38.28C278.595 37.08 278.255 35.72 278.255 34.2C278.255 32.66 278.565 31.3 279.185 30.12C279.825 28.94 280.695 28.01 281.795 27.33C282.915 26.65 284.175 26.31 285.575 26.31C286.955 26.31 288.195 26.64 289.295 27.3C290.415 27.96 291.285 28.88 291.905 30.06C292.545 31.22 292.865 32.56 292.865 34.08C292.865 34.12 292.865 34.17 292.865 34.23C292.865 34.27 292.865 34.31 292.865 34.35H278.915V33.54H292.325L291.935 34.02C291.935 32.72 291.655 31.56 291.095 30.54C290.555 29.5 289.805 28.69 288.845 28.11C287.885 27.51 286.795 27.21 285.575 27.21C284.355 27.21 283.265 27.51 282.305 28.11C281.345 28.69 280.585 29.5 280.025 30.54C279.485 31.56 279.215 32.73 279.215 34.05V34.23C279.215 35.59 279.515 36.8 280.115 37.86C280.715 38.9 281.535 39.72 282.575 40.32C283.615 40.9 284.805 41.19 286.145 41.19C287.165 41.19 288.125 41 289.025 40.62C289.945 40.24 290.705 39.66 291.305 38.88L291.935 39.54C291.235 40.38 290.375 41.02 289.355 41.46C288.355 41.88 287.285 42.09 286.145 42.09ZM297.892 42V26.43H298.882V33.72H310.102V26.43H311.092V42H310.102V34.59H298.882V42H297.892ZM317.872 42V26.43H318.862V40.41L330.562 26.43H331.432V42H330.442V28.02L318.712 42H317.872ZM348.375 42V36.18L348.645 36.45H342.915C341.015 36.45 339.535 36.04 338.475 35.22C337.415 34.4 336.885 33.17 336.885 31.53C336.885 29.79 337.455 28.51 338.595 27.69C339.755 26.85 341.275 26.43 343.155 26.43H349.305V42H348.375ZM336.855 42L341.205 36H342.285L337.935 42H336.855ZM348.375 35.94V27L348.645 27.33H343.245C341.545 27.33 340.225 27.66 339.285 28.32C338.365 28.98 337.905 30.06 337.905 31.56C337.905 34.3 339.615 35.67 343.035 35.67H348.645L348.375 35.94Z" fill="white"/>
<line x1="1" y1="1.5" x2="111" y2="1.5" stroke="white"/>
<line x1="254" y1="65.5" x2="364" y2="65.5" stroke="white"/>
<line x1="1.5" y1="2" x2="1.5" y2="37" stroke="white"/>
<line x1="363.5" y1="31" x2="363.5" y2="66" stroke="white"/>
</svg>
